<?xml version="1.0" encoding="UTF-8" standalone="no"?>
<!DOCTYPE svg PUBLIC "-//W3C//DTD SVG 1.1//EN" "http://www.w3.org/Graphics/SVG/1.1/DTD/svg11.dtd">
<svg width="100%" height="100%" viewBox="0 0 137 135" version="1.1" xmlns="http://www.w3.org/2000/svg" xmlns:xlink="http://www.w3.org/1999/xlink" xml:space="preserve" xmlns:serif="http://www.serif.com/" style="fill-rule:evenodd;clip-rule:evenodd;stroke-linecap:round;stroke-linejoin:round;">
    <g id="Group_1" transform="matrix(1,0,0,1,0,361.474)">
        <g id="Path_1" transform="matrix(1,0,0,1,-1.853,0)">
            <path d="M68.316,-360.822C103.815,-360.805 133.021,-331.599 133.039,-296.1C133.022,-260.6 103.816,-231.394 68.316,-231.377C32.816,-231.394 3.61,-260.6 3.593,-296.1C3.611,-331.599 32.817,-360.805 68.316,-360.822Z" style="fill:none;fill-rule:nonzero;stroke:black;stroke-width:1px;"/>
        </g>
        <g id="Path_2" transform="matrix(1,0,0,1,-8.227,-0.756)">
            <path d="M78.43,-359.623C113.93,-359.607 143.137,-330.4 143.154,-294.9C143.137,-259.4 113.93,-230.193 78.43,-230.177C42.93,-230.194 13.724,-259.4 13.707,-294.9C13.724,-330.4 42.93,-359.606 78.43,-359.623Z" style="fill:none;fill-rule:nonzero;stroke:black;stroke-width:1px;"/>
        </g>
        <g id="Path_3" transform="matrix(1,0,0,1,0,-5.245)">
            <path d="M65.375,-352.5C100.875,-352.484 130.083,-323.277 130.1,-287.777C130.083,-252.277 100.876,-223.07 65.376,-223.054C29.876,-223.07 0.669,-252.277 0.652,-287.777C0.669,-323.277 29.875,-352.483 65.375,-352.5Z" style="fill:none;fill-rule:nonzero;stroke:black;stroke-width:1px;"/>
        </g>
        <g id="Path_4" transform="matrix(1,0,0,1,-9.418,-6.381)">
            <path d="M80.32,-350.7C115.82,-350.683 145.027,-321.476 145.043,-285.976C145.028,-250.475 115.821,-221.267 80.32,-221.25C44.822,-221.269 15.617,-250.475 15.6,-285.973C15.615,-321.473 44.82,-350.681 80.32,-350.7Z" style="fill:none;fill-rule:nonzero;stroke:black;stroke-width:1px;"/>
        </g>
        <g transform="matrix(1,0,0,1,-0.466,-1.3161)">
            <g id="Path_5" transform="matrix(1,0,0,1,-41.13,-80.7785)">
                <path d="M65.917,-214.77C66.647,-214.77 68.107,-214.833 68.733,-214.833C69.713,-214.833 70.714,-214.791 71.694,-214.791C73.169,-214.677 74.646,-214.99 75.949,-215.691C76.958,-216.321 77.556,-217.445 77.513,-218.634C77.605,-219.61 77.146,-220.56 76.324,-221.094C75.413,-221.612 74.389,-221.901 73.342,-221.935L73.342,-222.061C73.931,-222.155 74.505,-222.323 75.052,-222.561C76.099,-223.011 76.759,-224.071 76.7,-225.209C76.753,-225.999 76.446,-226.771 75.866,-227.309C75.199,-227.877 74.448,-228.129 72.321,-228.129C71.216,-228.129 69.756,-228.066 68.755,-228.066C67.733,-228.066 66.69,-228.129 65.939,-228.129L65.96,-227.498C67.295,-227.435 67.608,-227.309 67.628,-226.998C67.691,-226.325 67.691,-225.653 67.691,-224.244L67.691,-219.031C67.691,-217.622 67.649,-216.55 67.608,-215.941C67.566,-215.541 67.274,-215.458 65.919,-215.394L65.917,-214.77ZM70.443,-224.65C70.443,-225.764 70.485,-226.5 70.526,-227.088C70.526,-227.34 70.626,-227.466 71.526,-227.466C72.262,-227.571 72.997,-227.253 73.426,-226.646C73.701,-226.13 73.83,-225.549 73.801,-224.965C73.801,-222.842 72.901,-222.211 71.361,-222.211C70.986,-222.211 70.673,-222.211 70.443,-222.232L70.443,-224.65ZM70.443,-221.539C70.672,-221.56 70.985,-221.581 71.343,-221.581C72.248,-221.697 73.159,-221.404 73.825,-220.781C74.263,-220.181 74.468,-219.44 74.4,-218.7C74.438,-217.926 74.265,-217.156 73.9,-216.472C73.307,-215.715 72.352,-215.33 71.4,-215.463C70.712,-215.463 70.524,-215.61 70.5,-215.82C70.458,-216.429 70.437,-217.249 70.437,-218.679L70.443,-221.539Z" style="fill-rule:nonzero;"/>
            </g>
            <g id="Path_6" transform="matrix(1,0,0,1,-62.028,-80.3845)">
                <path d="M112.718,-215.794L111.926,-215.857C111.556,-215.849 111.22,-216.077 111.092,-216.424C110.383,-218.124 108.235,-225.295 107.255,-228.763C106.477,-228.521 105.669,-228.387 104.855,-228.363C104.793,-227.919 104.681,-227.483 104.521,-227.063C104,-225.402 101.726,-218.844 101.08,-217.163C100.621,-216.028 100.225,-215.881 99.099,-215.797L99.078,-215.166C99.891,-215.166 100.871,-215.229 101.518,-215.229C102.456,-215.229 103.165,-215.166 103.854,-215.166L103.854,-215.797C102.165,-215.902 101.954,-216.112 102.144,-217.016C102.269,-217.541 102.544,-218.445 103.061,-220.169C103.436,-220.19 104.187,-220.211 104.961,-220.211C105.735,-220.211 106.505,-220.19 106.942,-220.169C107.297,-218.95 107.776,-217.247 107.964,-216.469C108.064,-215.986 107.902,-215.901 106.692,-215.796L106.692,-215.165C107.777,-215.186 108.611,-215.228 109.779,-215.228C111.03,-215.228 112.179,-215.165 112.72,-215.165L112.718,-215.794ZM105.147,-226.725C105.627,-225.001 106.231,-222.815 106.732,-220.965C106.419,-220.965 105.773,-220.944 105.085,-220.944C104.418,-220.944 103.708,-220.965 103.333,-220.965C104.146,-223.719 104.709,-225.338 105.147,-226.725Z" style="fill-rule:nonzero;"/>
            </g>
            <g id="Path_7" transform="matrix(1,0,0,1,-85.166,-80.7785)">
                <path d="M135.918,-227.508L136.836,-227.403C137.137,-227.415 137.428,-227.292 137.628,-227.067C137.756,-226.909 137.842,-226.721 137.878,-226.52C137.878,-221.496 137.669,-217.292 137.565,-216.514C137.482,-215.904 137.315,-215.589 136.835,-215.505C136.459,-215.442 136.042,-215.405 135.813,-215.379L135.792,-214.77C136.313,-214.77 137.043,-214.833 138.023,-214.833C139.17,-214.833 140.129,-214.77 140.88,-214.77L140.921,-215.379C140.337,-215.442 139.837,-215.505 139.482,-215.568C139.085,-215.611 138.779,-215.947 138.773,-216.346C138.648,-217.187 138.586,-221.202 138.586,-225.952C140.901,-222.4 144.175,-217.46 145.986,-214.58C146.544,-214.685 147.108,-214.755 147.675,-214.79L147.675,-220.024C147.631,-222.22 147.721,-224.418 147.946,-226.603C148.03,-227.087 148.155,-227.276 148.53,-227.36C148.867,-227.43 149.209,-227.479 149.552,-227.507L149.531,-228.138C148.947,-228.138 148.031,-228.054 147.32,-228.054C146.59,-228.054 145.652,-228.138 144.734,-228.138L144.609,-227.507L145.631,-227.444C146.403,-227.381 146.653,-227.213 146.736,-226.498C146.82,-225.93 146.945,-223.786 146.924,-218.384C144.024,-222.609 142.106,-225.426 141.502,-226.372C140.898,-227.318 140.602,-227.781 140.396,-228.138C139.724,-228.073 139.048,-228.045 138.373,-228.054C137.434,-228.054 136.267,-228.138 135.912,-228.138L135.918,-227.508Z" style="fill-rule:nonzero;"/>
            </g>
            <g id="Path_8" transform="matrix(1,0,0,1,-110.115,-80.5635)">
                <path d="M182.578,-224.907C182.578,-226.021 182.599,-227.072 182.62,-227.618C184.894,-227.66 185.269,-227.45 185.52,-226.882C185.863,-226.05 186.081,-225.171 186.167,-224.275L186.767,-224.464C186.748,-225.805 186.811,-227.146 186.955,-228.479C185.365,-228.258 183.758,-228.187 182.155,-228.269L180.255,-228.269C178.771,-228.218 177.285,-228.288 175.813,-228.479C175.751,-227.554 175.583,-225.41 175.375,-224.279L175.938,-224.153C176.155,-224.991 176.448,-225.807 176.814,-226.591C177.214,-227.391 177.481,-227.621 179.796,-227.621C179.817,-227.096 179.817,-226.087 179.817,-224.741L179.817,-220.074C179.817,-217.888 179.796,-217.026 179.733,-216.332C179.712,-215.912 179.483,-215.807 179.045,-215.743C178.445,-215.68 178.065,-215.617 177.627,-215.596L177.711,-214.987C178.67,-214.987 179.88,-215.05 181.011,-215.05C182.575,-215.05 184.035,-214.987 184.661,-214.987L184.723,-215.618C184.139,-215.639 183.823,-215.681 183.201,-215.744C182.801,-215.807 182.701,-215.975 182.659,-216.375C182.617,-216.9 182.575,-217.975 182.575,-220.075L182.578,-224.907Z" style="fill-rule:nonzero;"/>
            </g>
            <g id="Path_9" transform="matrix(1,0,0,1,-131.796,-80.7785)">
                <path d="M211.517,-219.079C211.517,-217.397 211.454,-216.535 211.417,-216.073C211.375,-215.573 211.083,-215.464 209.79,-215.379L209.79,-214.77C210.457,-214.77 211.709,-214.833 212.772,-214.833C213.898,-214.833 215.172,-214.77 215.9,-214.77L215.942,-215.379C214.67,-215.463 214.378,-215.547 214.357,-216.094C214.315,-216.682 214.273,-217.502 214.273,-219.142L214.273,-224.25C214.273,-225.7 214.315,-226.436 214.336,-226.877C214.378,-227.34 214.628,-227.445 215.9,-227.508L215.879,-228.139C215.191,-228.139 213.939,-228.055 212.855,-228.055C211.729,-228.055 210.436,-228.118 209.831,-228.139L209.81,-227.508C211.166,-227.424 211.437,-227.361 211.479,-226.793C211.5,-226.293 211.521,-225.7 211.521,-224.186L211.517,-219.079Z" style="fill-rule:nonzero;"/>
            </g>
            <g id="Path_10" transform="matrix(1,0,0,1,-143.525,-80.7785)">
                <path d="M228.522,-227.508L229.44,-227.403C229.741,-227.415 230.032,-227.292 230.232,-227.067C230.36,-226.909 230.446,-226.721 230.482,-226.52C230.482,-221.496 230.274,-217.292 230.17,-216.514C230.086,-215.904 229.92,-215.589 229.44,-215.505C229.064,-215.442 228.648,-215.405 228.418,-215.379L228.397,-214.77C228.918,-214.77 229.648,-214.833 230.628,-214.833C231.775,-214.833 232.734,-214.77 233.485,-214.77L233.526,-215.379C232.942,-215.442 232.442,-215.505 232.087,-215.568C231.69,-215.61 231.383,-215.947 231.378,-216.346C231.253,-217.187 231.19,-221.202 231.19,-225.952C233.505,-222.4 236.779,-217.46 238.59,-214.58C239.148,-214.685 239.712,-214.755 240.279,-214.79L240.279,-220.024C240.235,-222.22 240.325,-224.418 240.55,-226.603C240.634,-227.087 240.759,-227.276 241.134,-227.36C241.471,-227.43 241.813,-227.479 242.156,-227.507L242.135,-228.138C241.551,-228.138 240.635,-228.054 239.924,-228.054C239.194,-228.054 238.256,-228.138 237.338,-228.138L237.213,-227.507L238.235,-227.444C239.007,-227.381 239.257,-227.213 239.34,-226.498C239.424,-225.93 239.549,-223.786 239.528,-218.384C236.628,-222.609 234.71,-225.426 234.106,-226.372C233.502,-227.318 233.206,-227.781 233.001,-228.138C232.329,-228.073 231.653,-228.045 230.978,-228.054C230.039,-228.054 228.872,-228.138 228.517,-228.138L228.522,-227.508Z" style="fill-rule:nonzero;"/>
            </g>
            <g id="Path_11" transform="matrix(1,0,0,1,-168.51,-80.3125)">
                <path d="M279.369,-224.022C279.315,-225.577 279.42,-227.133 279.682,-228.667L279.139,-228.835L278.701,-227.763C277.671,-228.554 276.39,-228.95 275.093,-228.877C273.646,-228.956 272.209,-228.581 270.985,-227.805C269.02,-226.457 267.902,-224.171 268.044,-221.793C267.964,-220.139 268.418,-218.503 269.337,-217.126C270.463,-215.655 272.152,-214.961 274.843,-214.961C275.829,-214.986 276.81,-215.126 277.763,-215.381C278.389,-215.57 279.285,-215.843 279.807,-215.948C279.704,-216.693 279.663,-217.446 279.682,-218.198C279.645,-218.927 279.659,-219.657 279.723,-220.384C279.765,-220.847 279.973,-220.952 280.933,-221.099L280.912,-221.708C280.307,-221.666 279.097,-221.624 278.138,-221.624C277.238,-221.624 275.594,-221.687 274.838,-221.708L274.88,-221.077L275.923,-220.972C276.841,-220.909 276.945,-220.741 276.945,-219.585C276.945,-218.639 276.945,-217.42 276.861,-216.768C276.799,-216.032 276.261,-215.654 275.13,-215.654C273.885,-215.618 272.73,-216.32 272.189,-217.441C271.506,-218.817 271.176,-220.341 271.23,-221.876C271.151,-223.547 271.542,-225.208 272.356,-226.669C272.944,-227.675 274.05,-228.269 275.213,-228.204C277.194,-228.204 278.508,-226.775 278.758,-224.021L279.369,-224.022Z" style="fill-rule:nonzero;"/>
            </g>
            <g id="Path_12" transform="matrix(1,0,0,1,-42.85,-112.614)">
                <path d="M68.873,-176.982L70.05,-176.891C70.48,-176.845 70.729,-176.731 70.775,-176.571L70.82,-176.297C70.82,-171.391 70.707,-167.055 70.62,-165.435C70.552,-164.135 70.258,-163.929 69.692,-163.835C69.348,-163.776 69,-163.738 68.651,-163.721L68.651,-163.082C69.151,-163.082 70.1,-163.15 71.164,-163.15C72.164,-163.15 73.224,-163.082 73.994,-163.082L73.994,-163.721L72.817,-163.858C71.866,-163.949 71.753,-164.246 71.73,-165.41C71.639,-167.76 71.571,-171.891 71.571,-176.41L71.594,-176.41C73.02,-172.576 75.85,-165.844 76.756,-163.01L77.73,-163.238C78.522,-165.314 80.469,-170.358 82.892,-176.538L82.915,-176.538C82.847,-171.677 82.757,-165.676 82.689,-164.444C82.666,-163.965 82.35,-163.805 80.968,-163.714L80.923,-163.075C81.964,-163.098 83.096,-163.143 84.002,-163.143C85.066,-163.143 86.47,-163.097 87.013,-163.075L87.013,-163.714L85.768,-163.828C85.315,-163.874 85.134,-163.988 85.089,-164.604C84.998,-165.745 84.953,-168.985 84.953,-173.413L84.953,-176.334C84.951,-176.352 84.95,-176.371 84.95,-176.389C84.95,-176.621 85.13,-176.816 85.361,-176.834C85.7,-176.857 86.402,-176.925 86.855,-176.971L86.787,-177.61C86.13,-177.61 85.179,-177.542 84.296,-177.542C83.481,-177.542 83.028,-177.565 82.53,-177.61C82.19,-176.56 80.039,-171.357 78.024,-166.52C76.598,-169.966 73.835,-176.15 73.315,-177.61C72.743,-177.555 72.168,-177.532 71.594,-177.542C70.937,-177.542 70.077,-177.565 68.9,-177.61L68.873,-176.982Z" style="fill-rule:nonzero;"/>
            </g>
            <g id="Path_13" transform="matrix(1,0,0,1,-74.488,-112.225)">
                <path d="M133.408,-164.113L132.547,-164.181C132.109,-164.17 131.708,-164.436 131.547,-164.843C130.686,-166.897 128.332,-174.427 127.223,-178.238C126.618,-178.056 125.996,-177.941 125.366,-177.896C125.298,-177.554 125.185,-177.211 124.981,-176.55C124.324,-174.61 121.789,-167.491 121.064,-165.619C120.543,-164.364 120.113,-164.204 118.845,-164.113L118.845,-163.474C119.751,-163.474 120.792,-163.542 121.445,-163.542C122.464,-163.542 123.211,-163.474 123.913,-163.474L123.936,-164.113C122.102,-164.227 121.876,-164.455 122.102,-165.437C122.261,-166.076 122.602,-167.057 123.234,-169.043C123.551,-169.066 124.479,-169.066 125.434,-169.066C126.408,-169.066 127.381,-169.066 127.743,-169.043C128.219,-167.56 128.807,-165.574 129.034,-164.775C129.147,-164.319 128.921,-164.227 127.54,-164.113L127.585,-163.474C128.585,-163.474 129.532,-163.542 130.619,-163.542C131.751,-163.542 132.883,-163.474 133.404,-163.474L133.408,-164.113ZM125.642,-176.253C126.231,-174.268 126.978,-171.826 127.542,-169.841C127.316,-169.818 126.455,-169.795 125.618,-169.795C124.757,-169.795 123.852,-169.818 123.512,-169.841C124.374,-172.556 125.076,-174.564 125.642,-176.253Z" style="fill-rule:nonzero;"/>
            </g>
            <g id="Path_14" transform="matrix(1,0,0,1,-99.567,-112.614)">
                <path d="M160.66,-168.037C160.66,-165.892 160.615,-164.956 160.569,-164.408C160.524,-163.929 160.184,-163.815 158.713,-163.724L158.69,-163.085C159.528,-163.085 160.569,-163.153 161.701,-163.153C162.607,-163.153 163.965,-163.085 164.78,-163.085L164.848,-163.724C163.195,-163.838 162.969,-163.929 162.948,-164.5C162.903,-165.184 162.857,-166.029 162.857,-167.809L162.857,-170.109L163.536,-170.109C165.736,-170.109 166.955,-169.653 167.181,-167.439C167.226,-166.8 167.294,-166.207 167.317,-165.614C167.476,-163.674 168.317,-162.898 170.102,-162.898C170.622,-162.893 171.14,-162.962 171.641,-163.104L171.732,-163.743C171.515,-163.706 171.295,-163.683 171.075,-163.674C170.305,-163.674 169.943,-164.153 169.852,-165.203C169.791,-165.938 169.693,-166.669 169.558,-167.394C169.219,-169.402 167.792,-170.224 165.709,-170.474L165.709,-170.565C167.77,-170.907 169.603,-171.843 169.603,-174.285C169.647,-175.156 169.327,-176.008 168.72,-176.635C168.086,-177.274 167.067,-177.616 164.939,-177.616C163.762,-177.616 162.607,-177.548 161.52,-177.548C160.456,-177.548 159.256,-177.616 158.758,-177.616L158.644,-176.977L160.025,-176.84C160.478,-176.795 160.591,-176.635 160.591,-176.315C160.614,-175.815 160.659,-174.946 160.659,-172.801L160.66,-168.037ZM162.86,-173.354C162.833,-174.375 162.871,-175.396 162.973,-176.412C162.963,-176.595 163.088,-176.76 163.267,-176.8C163.646,-176.884 164.034,-176.922 164.422,-176.914C165.308,-177.042 166.196,-176.673 166.731,-175.955C167.067,-175.382 167.232,-174.725 167.207,-174.061C167.207,-171.661 165.916,-170.798 163.562,-170.798L162.862,-170.798L162.86,-173.354Z" style="fill-rule:nonzero;"/>
            </g>
            <g id="Path_15" transform="matrix(1,0,0,1,-122.1,-112.614)">
                <path d="M196.415,-167.809C196.415,-166.009 196.37,-164.865 196.324,-164.432C196.279,-163.907 195.985,-163.838 194.424,-163.725L194.401,-163.086C195.08,-163.086 196.212,-163.154 197.344,-163.154C198.431,-163.154 199.699,-163.086 200.559,-163.086L200.604,-163.725C198.996,-163.839 198.747,-163.908 198.725,-164.432C198.702,-165.003 198.634,-166.007 198.634,-167.923L198.634,-170.137C198.973,-170.251 199.177,-170.091 199.634,-169.521C200.698,-168.083 204.162,-163.656 204.592,-162.903C205.222,-162.99 205.856,-163.043 206.492,-163.063C207.126,-163.109 207.85,-163.109 208.665,-163.086L208.778,-163.725C207.329,-163.816 206.967,-163.93 206.469,-164.432C205.654,-165.276 202.53,-169.178 200.854,-171.506C202.643,-173.286 204.612,-175.34 205.54,-176.206C206.267,-176.773 207.18,-177.05 208.099,-176.982L208.076,-177.621C207.51,-177.598 206.559,-177.553 205.586,-177.553C204.567,-177.553 203.707,-177.621 203.005,-177.621L202.847,-176.959L204.16,-176.799C204.477,-176.776 204.545,-176.685 204.341,-176.365C203.571,-175.156 200.13,-171.322 198.635,-170.706L198.635,-173.079C198.635,-174.745 198.703,-175.749 198.748,-176.32C198.771,-176.845 199.042,-176.868 200.401,-176.959L200.355,-177.621C199.744,-177.621 198.499,-177.553 197.502,-177.553C196.505,-177.553 195.261,-177.621 194.672,-177.621L194.627,-176.959C196.054,-176.89 196.371,-176.845 196.393,-176.274C196.438,-175.635 196.416,-174.791 196.416,-173.011L196.415,-167.809Z" style="fill-rule:nonzero;"/>
            </g>
            <g id="Path_16" transform="matrix(1,0,0,1,-146.33,-112.498)">
                <path d="M233.03,-177.1L234.184,-177.009C234.727,-176.964 234.908,-176.827 234.931,-176.416C234.954,-175.777 234.977,-174.616 234.977,-172.97L234.977,-168.155C234.977,-166.831 234.954,-165.713 234.886,-164.846C234.863,-164.184 234.705,-164.002 234.275,-163.979L232.875,-163.842L232.852,-163.203C233.622,-163.203 235.252,-163.271 236.338,-163.271L239.168,-163.271C241.84,-163.271 243.221,-163.225 243.968,-163.157C244.081,-163.75 244.511,-166.74 244.534,-167.287L243.968,-167.355C243.774,-166.415 243.38,-165.529 242.813,-164.755C242.27,-164.116 241.681,-163.979 239.508,-163.979C237.447,-163.979 237.308,-164.093 237.289,-164.55C237.244,-165.35 237.198,-166.786 237.198,-168.11L237.198,-170.3C237.424,-170.323 238.104,-170.346 238.534,-170.346C240.64,-170.346 240.866,-169.821 241.047,-168.087L241.658,-168.087C241.553,-169.729 241.56,-171.375 241.681,-173.016L241.115,-173.016C240.915,-171.464 240.594,-171.076 238.556,-171.076C238.194,-171.076 237.447,-171.099 237.198,-171.122L237.198,-173.609C237.198,-174.864 237.243,-175.891 237.289,-176.576C237.312,-176.85 237.38,-176.941 237.651,-176.941L239.327,-176.941C241.546,-176.941 241.885,-176.713 242.202,-175.892C242.44,-175.266 242.608,-174.615 242.702,-173.952L243.313,-173.975C243.256,-175.253 243.271,-176.533 243.358,-177.809C242.297,-177.704 241.232,-177.658 240.166,-177.672L236.34,-177.672C235.185,-177.672 233.691,-177.74 233.035,-177.74L233.03,-177.1Z" style="fill-rule:nonzero;"/>
            </g>
            <g id="Path_17" transform="matrix(1,0,0,1,-167.397,-112.381)">
                <path d="M273.613,-174.043C273.613,-175.252 273.613,-176.485 273.636,-177.101C276.715,-177.146 277.077,-176.918 277.281,-176.301C277.543,-175.447 277.71,-174.567 277.781,-173.677L278.415,-173.883C278.389,-175.255 278.455,-176.627 278.615,-177.99C276.882,-177.759 275.131,-177.69 273.385,-177.785L271.6,-177.785C269.982,-177.714 268.361,-177.783 266.755,-177.99C266.687,-176.99 266.483,-174.841 266.279,-173.7L266.845,-173.54C267.055,-174.378 267.32,-175.202 267.638,-176.005C268.023,-176.895 268.272,-177.105 271.351,-177.105C271.397,-176.489 271.374,-175.325 271.374,-173.796L271.374,-169C271.374,-166.559 271.351,-165.509 271.306,-164.733C271.261,-164.299 271.034,-164.162 270.559,-164.094C269.835,-164.026 269.382,-163.98 268.884,-163.957L268.975,-163.318C270.016,-163.318 271.239,-163.386 272.28,-163.386C273.774,-163.386 275.269,-163.318 275.993,-163.318L276.039,-163.957C275.455,-163.979 274.873,-164.033 274.295,-164.117C273.842,-164.162 273.752,-164.345 273.707,-164.779C273.661,-165.327 273.616,-166.628 273.616,-168.979L273.613,-174.043Z" style="fill-rule:nonzero;"/>
            </g>
        </g>
        <g>
            <g id="Path_79" transform="matrix(1,0,0,1,-47.336,-172.453)">
                <path d="M74.2,-95.364L156.75,-95.364" style="fill:none;fill-rule:nonzero;stroke:black;stroke-width:1px;stroke-linecap:square;stroke-linejoin:miter;stroke-miterlimit:1.5;"/>
            </g>
            <g id="Path_791" serif:id="Path_79" transform="matrix(1,0,0,1,-47.336,-224.163)">
                <path d="M74.2,-95.364L156.75,-95.364" style="fill:none;fill-rule:nonzero;stroke:black;stroke-width:1px;stroke-linecap:square;stroke-linejoin:miter;stroke-miterlimit:1.5;"/>
            </g>
        </g>
    </g>
</svg>
